<svg id="Layer_1" data-name="Layer 1" xmlns="http://www.w3.org/2000/svg" viewBox="0 0 45.3 52.4"><defs><style>.cls-1,.cls-2{fill:#111;}.cls-1{stroke:#111;stroke-miterlimit:10;stroke-width:2px;}</style></defs><path class="cls-1" d="M320.08,348.78h-4.61L297,399.18h4l6.36-17.29.05-.14,1.37-3.6,0-.06c4.53-12.78,7.76-21.69,9-25.5h.07c1,3.38,3.88,10.56,9.47,25.46l0,.1,1.29,3.6.05.14,6.5,17.29h4.25Z" transform="translate(-295.53 -347.78)"/><g id="layer1"><path id="path1575" class="cls-2" d="M320.12,375.31H320a2.72,2.72,0,0,0-1.95,2.59,2.2,2.2,0,0,0,1.42,2.55,1,1,0,0,0,.49,0,3,3,0,0,0,1.74-3.35A1.78,1.78,0,0,0,320.12,375.31Zm-5.08.05a1.72,1.72,0,0,0-1.45,1.49,3.17,3.17,0,0,0,1.86,3.6,1.19,1.19,0,0,0,.42,0c1-.16,1.41-1.28,1.37-2.17a3,3,0,0,0-1.87-2.89A1.29,1.29,0,0,0,315,375.36Zm8.33,4a2.75,2.75,0,0,0-2.3,2.57c-.17.86.29,2,1.28,2.09,1.38,0,2.32-1.49,2.36-2.76A1.64,1.64,0,0,0,323.37,379.36Zm-11.29.29a1.3,1.3,0,0,0-1.27.88,3,3,0,0,0,2.07,3.69,1.28,1.28,0,0,0,1.4-1,3.08,3.08,0,0,0-1.57-3.41A1.28,1.28,0,0,0,312.08,379.65Zm5.78,2.67a3.92,3.92,0,0,0-2.86,1.36,7.83,7.83,0,0,0-1.61,3.25,1.42,1.42,0,0,0,1.29,1.85c1.11,0,2.06-.73,3.16-.78a5.15,5.15,0,0,1,2.61.66,1.57,1.57,0,0,0,2.06-.58,3,3,0,0,0-.48-2.32,8.86,8.86,0,0,0-2.65-3A2.86,2.86,0,0,0,317.86,382.32Z" transform="translate(-295.53 -347.78)"/></g></svg>