<svg id="Layer_1" data-name="Layer 1" xmlns="http://www.w3.org/2000/svg" viewBox="0 0 45.3 52.41"><defs><style>.cls-1,.cls-2{fill:#fff;}.cls-2{stroke:#fff;stroke-miterlimit:10;stroke-width:2px;}</style></defs><path class="cls-1" d="M252.66,373.09a2.17,2.17,0,0,1,.82.2,3.22,3.22,0,0,1,.86.5,3.85,3.85,0,0,1,.69.71,1.3,1.3,0,0,1,.29.81,1.43,1.43,0,0,1-.33.93,1,1,0,0,1-.82.4,2.17,2.17,0,0,1-.8-.19,3.8,3.8,0,0,1-.9-.51,4,4,0,0,1-.72-.7,1.27,1.27,0,0,1-.31-.81,1.32,1.32,0,0,1,.37-.93A1.13,1.13,0,0,1,252.66,373.09Zm1.12-4.92a1.29,1.29,0,0,1,.76.3,4.55,4.55,0,0,1,.74.72,4.66,4.66,0,0,1,.56.9,2,2,0,0,1,.22.86,1.27,1.27,0,0,1-.37.89,1.09,1.09,0,0,1-.82.41,1.29,1.29,0,0,1-.75-.3,4.18,4.18,0,0,1-.74-.72,4.66,4.66,0,0,1-.56-.9,2,2,0,0,1-.22-.86,1.32,1.32,0,0,1,.36-.9A1.13,1.13,0,0,1,253.78,368.17Zm5.39,3.27a4.68,4.68,0,0,1,1.45.33,10.77,10.77,0,0,1,1.84.9,7.78,7.78,0,0,1,1.59,1.27,2,2,0,0,1,.68,1.4,1.59,1.59,0,0,1-.36,1,1.09,1.09,0,0,1-.89.44,3,3,0,0,1-.52,0l-.51,0c-1.59.07-2.42.57-2.51,1.51a2.27,2.27,0,0,1-.75,1.51,2.16,2.16,0,0,1-1.49.6,1,1,0,0,1-.79-.35,2.49,2.49,0,0,1-.41-.85,4.35,4.35,0,0,1-.18-1.05c0-.38,0-.7,0-1,0-.51,0-1.1.09-1.75a8.09,8.09,0,0,1,.42-1.87,4.3,4.3,0,0,1,.88-1.47A2,2,0,0,1,259.17,371.44Zm-1.38-5.87a1,1,0,0,1,.71.33,3.2,3.2,0,0,1,.55.81,5.82,5.82,0,0,1,.35,1,4,4,0,0,1,.13.89,1.4,1.4,0,0,1-.36,1,1.16,1.16,0,0,1-.89.38,1,1,0,0,1-.71-.33,3.27,3.27,0,0,1-.55-.79,5,5,0,0,1-.35-1,4.15,4.15,0,0,1-.13-.88,1.46,1.46,0,0,1,.36-1A1.12,1.12,0,0,1,257.79,365.57Zm3.41,3.69c0-1.52.45-2.26,1.34-2.22a1,1,0,0,1,1.08.76,5.58,5.58,0,0,1,.21,1.49q0,2.22-1.35,2.22a1,1,0,0,1-1.07-.76A5.26,5.26,0,0,1,261.2,369.26Z" transform="translate(-243.4 -347.77)"/><path class="cls-2" d="M250.93,382.57l-6.1,16.61h4l5.46-14.85h0l.09-.24.56-1.51Zm17-33.8h-4.61l-5,13.72h3.83c1.63-4.57,2.81-7.92,3.44-9.9h.07c1,3.38,3.89,10.58,9.51,25.56h-8.21l-1.32,3.6h10.82L283,399.18h4.25Z" transform="translate(-243.4 -347.77)"/><polyline class="cls-2" points="10.85 36.55 10.94 36.31 11.5 34.8"/></svg>